<svg width="18" height="18" viewBox="0 0 18 18" xmlns="http://www.w3.org/2000/svg">
<path fill-rule="evenodd" clip-rule="evenodd" d="M14.2162 2.42682C14.8326 3.04324 15.0497 3.90715 14.868 4.6982C16.1001 4.82014 17.0625 5.85955 17.0625 7.12374C17.0625 7.82889 16.7631 8.4641 16.2844 8.90917C16.3125 9.35496 16.3125 9.76771 16.3125 10.5848V10.6259C16.3125 11.5241 16.3125 12.2258 16.2756 12.792C16.2382 13.3669 16.161 13.842 15.9876 14.2804C15.5543 15.3765 14.7196 16.2555 13.659 16.7157C13.232 16.901 12.7702 16.9829 12.2169 17.0224C11.6739 17.0612 11.002 17.0612 10.1469 17.0612H7.85317C6.99802 17.0612 6.32611 17.0612 5.78306 17.0224C5.22981 16.9829 4.76805 16.901 4.34102 16.7157C3.28038 16.2555 2.44572 15.3765 2.01236 14.2804C1.83901 13.842 1.76182 13.3669 1.72437 12.792C1.6875 12.2258 1.6875 11.5242 1.6875 10.6259V10.6059C1.6875 10.2492 1.68039 9.96168 1.67417 9.7102C1.66636 9.39411 1.65995 9.1349 1.67083 8.8665C1.21834 8.42396 0.9375 7.80665 0.9375 7.12374C0.9375 5.82025 1.96066 4.75574 3.24767 4.6895C3.0695 3.90083 3.28727 3.04099 3.90144 2.42683C4.85334 1.47492 6.39668 1.47492 7.34858 2.42683L8.93957 4.01782C8.98112 4.05937 9.02087 4.10207 9.05882 4.14583C9.09677 4.10207 9.13652 4.05936 9.17808 4.01781L10.7691 2.42682C11.721 1.47491 13.2643 1.47491 14.2162 2.42682ZM11.5646 3.22231C12.0771 2.70975 12.9082 2.70975 13.4207 3.22231C13.8163 3.61792 13.9068 4.20402 13.6913 4.68624H10.1006L11.5646 3.22231ZM6.55309 3.22232L8.017 4.68624H4.42632C4.21086 4.20402 4.30133 3.61793 4.69693 3.22232C5.2095 2.70976 6.04052 2.70976 6.55309 3.22232ZM2.0625 7.12374C2.0625 6.39886 2.65013 5.81124 3.375 5.81124H8.4375V8.43624H3.375C2.65013 8.43624 2.0625 7.84861 2.0625 7.12374ZM9.5625 15.7487L9.5625 9.56124H14.625C14.8166 9.56124 15.0031 9.53912 15.182 9.4973C15.1874 9.77393 15.1875 10.1108 15.1875 10.6059C15.1875 11.5285 15.1872 12.1935 15.153 12.7189C15.1191 13.2396 15.0536 13.5832 14.9415 13.8667C14.6136 14.6959 13.9882 15.3465 13.2111 15.6837C12.949 15.7974 12.6294 15.8651 12.1367 15.9003C11.6385 15.9359 11.0067 15.9362 10.125 15.9362H9.53049C9.55122 15.8776 9.5625 15.8145 9.5625 15.7487ZM8.4375 15.7487L8.4375 9.56124H3.375C3.17496 9.56124 2.98056 9.53714 2.79452 9.49169L2.7973 9.59549C2.80405 9.84484 2.8125 10.157 2.8125 10.6059C2.8125 11.5285 2.81278 12.1935 2.84699 12.7189C2.88091 13.2396 2.94644 13.5832 3.05855 13.8667C3.38638 14.6959 4.01178 15.3465 4.78885 15.6837C5.05097 15.7974 5.3706 15.8651 5.86327 15.9003C6.36153 15.9359 6.9933 15.9362 7.875 15.9362H8.46951C8.44878 15.8776 8.4375 15.8145 8.4375 15.7487ZM15.9375 7.12374C15.9375 6.39886 15.3499 5.81124 14.625 5.81124H9.5625V8.43624H14.625C15.3499 8.43624 15.9375 7.84861 15.9375 7.12374Z"/>
</svg>
