<svg width="18" height="18" viewBox="0 0 18 18" xmlns="http://www.w3.org/2000/svg">
<g clip-path="url(#clip0_2709_18327)">
<path fill-rule="evenodd" clip-rule="evenodd" d="M9 0.1875C6.80368 0.1875 4.99084 1.82937 4.72191 3.95267C3.69778 3.99509 2.92113 4.11633 2.27212 4.47463C1.44317 4.93228 0.788612 5.6496 0.408317 6.51501C0.396605 6.54166 0.385154 6.56845 0.373966 6.59538C0.145121 7.14618 0.0841298 7.74791 0.102745 8.47129C0.121068 9.18331 0.219333 10.0677 0.344958 11.1982L0.350507 11.2482C0.453152 12.172 0.533794 12.8978 0.644744 13.4802C0.757939 14.0744 0.909776 14.5622 1.17697 14.9993C1.61802 15.7208 2.26143 16.2967 3.02719 16.6553C3.49111 16.8726 3.99269 16.9697 4.59575 17.0166C5.18683 17.0625 5.91708 17.0625 6.84658 17.0625H11.1534C12.0829 17.0625 12.8132 17.0625 13.4043 17.0166C14.0073 16.9697 14.5089 16.8726 14.9728 16.6553C15.7386 16.2967 16.382 15.7208 16.823 14.9993C17.0902 14.5622 17.2421 14.0744 17.3553 13.4802C17.4662 12.8979 17.5468 12.1721 17.6495 11.2483L17.655 11.1983C17.7807 10.0677 17.8789 9.18329 17.8973 8.47129C17.9159 7.74791 17.8549 7.14618 17.626 6.59538C17.5965 6.52426 17.5651 6.45409 17.5319 6.38494C17.1448 5.57775 16.5149 4.90915 15.7279 4.47463C15.0763 4.11491 14.3022 4.00098 13.2791 3.96083C13.0138 1.83357 11.1991 0.1875 9 0.1875ZM6.2651 3.93541C6.12713 3.93469 5.99294 3.93398 5.86266 3.93369C6.12987 2.44344 7.43287 1.3125 9 1.3125C10.5691 1.3125 11.8734 2.44627 12.1383 3.93929C11.8279 3.9375 11.4937 3.9375 11.134 3.9375H6.87026C6.66132 3.9375 6.45947 3.93644 6.2651 3.93541ZM5.26068 5.0624C5.56071 5.0567 5.87992 5.05841 6.23946 5.06033C6.43646 5.06138 6.64557 5.0625 6.87026 5.0625H11.1297C11.7481 5.0625 12.2771 5.06252 12.7395 5.07117C14.0414 5.09555 14.6993 5.19182 15.1842 5.45951C15.6473 5.71518 16.0367 6.0805 16.3207 6.51985L13.8146 9.02596C12.5533 10.2872 11.6465 11.1923 10.8644 11.789C10.0953 12.3758 9.51321 12.6112 8.909 12.6112C8.30479 12.6112 7.72269 12.3758 6.95356 11.789C6.17146 11.1923 5.26469 10.2872 4.00344 9.02597L1.60987 6.63239C1.89821 6.1428 2.31375 5.73671 2.81585 5.45951C3.30114 5.19159 3.96909 5.08693 5.26068 5.0624ZM16.7476 7.68394C16.772 7.89865 16.7802 8.14673 16.7726 8.44235C16.7557 9.10088 16.6632 9.93776 16.534 11.1005C16.4282 12.0529 16.3519 12.7353 16.2501 13.2697C16.1496 13.7973 16.0314 14.1374 15.8632 14.4125C15.5372 14.9458 15.0616 15.3714 14.4956 15.6366C14.2036 15.7733 13.8525 15.8533 13.3171 15.8949C12.7747 15.9371 12.088 15.9375 11.1297 15.9375H6.87026C5.912 15.9375 5.22535 15.9371 4.68295 15.8949C4.14751 15.8533 3.79637 15.7733 3.50438 15.6366C2.93839 15.3714 2.46282 14.9458 2.13683 14.4125C1.96865 14.1374 1.85037 13.7973 1.74987 13.2697C1.64806 12.7353 1.57184 12.0529 1.46602 11.1005C1.33683 9.93776 1.24432 9.10088 1.22737 8.44235C1.22166 8.22032 1.22487 8.0251 1.23719 7.8507L3.23838 9.8519C4.46258 11.0761 5.42197 12.0355 6.27116 12.6834C7.14036 13.3466 7.95991 13.7362 8.909 13.7362C9.85809 13.7362 10.6776 13.3466 11.5468 12.6834C12.396 12.0355 13.3554 11.0761 14.5796 9.85189L16.7476 7.68394Z"/>
</g>
<defs>
<clipPath id="clip0_2709_18327">
<rect width="18" height="18" fill="white"/>
</clipPath>
</defs>
</svg>
