<svg width="18" height="18" viewBox="0 0 18 18" xmlns="http://www.w3.org/2000/svg">
<path d="M6 6.5625L8.25 6.5625C8.56066 6.5625 8.8125 6.31066 8.8125 6C8.8125 5.68934 8.56066 5.4375 8.25 5.4375L6 5.4375C5.68934 5.4375 5.4375 5.68934 5.4375 6C5.4375 6.31066 5.68934 6.5625 6 6.5625Z"/>
<path d="M12 9.5625C12.3107 9.5625 12.5625 9.31066 12.5625 9C12.5625 8.68934 12.3107 8.4375 12 8.4375L6 8.4375C5.68934 8.4375 5.4375 8.68934 5.4375 9C5.4375 9.31066 5.68934 9.5625 6 9.5625L12 9.5625Z"/>
<path fill-rule="evenodd" clip-rule="evenodd" d="M12.3476 1.7803C11.491 1.68749 10.4113 1.68749 9.03394 1.6875H8.96606C7.58866 1.68749 6.50896 1.68749 5.65236 1.7803C4.7782 1.875 4.06992 2.07174 3.46518 2.51111C3.09907 2.77711 2.77711 3.09907 2.51111 3.46518C2.07174 4.06992 1.875 4.7782 1.7803 5.65236C1.68749 6.50896 1.68749 7.58866 1.6875 8.96606V9.03394C1.68749 10.4113 1.68749 11.491 1.7803 12.3476C1.875 13.2218 2.07174 13.9301 2.51111 14.5348C2.77711 14.9009 3.09907 15.2229 3.46518 15.4889C4.06992 15.9283 4.7782 16.125 5.65236 16.2197C6.50894 16.3125 7.58862 16.3125 8.96599 16.3125H9.00826C9.87832 16.3125 10.6264 16.3125 11.2693 16.2905C12.6743 16.2423 13.7071 16.0903 14.5348 15.4889C14.9009 15.2229 15.2229 14.9009 15.4889 14.5348C16.0903 13.7071 16.2423 12.6743 16.2905 11.2693C16.3125 10.6264 16.3125 9.87832 16.3125 9.00826V8.96605C16.3125 7.58868 16.3125 6.50894 16.2197 5.65236C16.125 4.7782 15.9283 4.06992 15.4889 3.46518C15.2229 3.09907 14.9009 2.77711 14.5348 2.51111C13.9301 2.07174 13.2218 1.875 12.3476 1.7803ZM4.12643 3.42126C4.50744 3.14444 4.9951 2.98309 5.77353 2.89875C6.56249 2.81327 7.58132 2.8125 9 2.8125C10.4187 2.8125 11.4375 2.81327 12.2265 2.89875C13.0049 2.98309 13.4926 3.14444 13.8736 3.42126C14.1442 3.61786 14.3821 3.85583 14.5787 4.12643C14.8556 4.50744 15.0169 4.9951 15.1013 5.77353C15.1867 6.56249 15.1875 7.58132 15.1875 9C15.1875 9.63626 15.1875 10.1938 15.1794 10.6889C14.8234 10.6921 14.5613 10.7032 14.3254 10.7406C12.4801 11.0329 11.0329 12.4801 10.7406 14.3254C10.7032 14.5613 10.6921 14.8234 10.6889 15.1794C10.1938 15.1875 9.63626 15.1875 9 15.1875C7.58132 15.1875 6.56249 15.1867 5.77353 15.1013C4.9951 15.0169 4.50744 14.8556 4.12643 14.5787C3.85583 14.3821 3.61786 14.1442 3.42126 13.8736C3.14444 13.4926 2.98309 13.0049 2.89875 12.2265C2.81327 11.4375 2.8125 10.4187 2.8125 9C2.8125 7.58132 2.81327 6.56249 2.89875 5.77353C2.98309 4.9951 3.14444 4.50744 3.42126 4.12643C3.61786 3.85583 3.85583 3.61786 4.12643 3.42126ZM14.5014 11.8517C14.6551 11.8274 14.8332 11.8181 15.1369 11.8146C15.0666 12.8348 14.9054 13.424 14.5787 13.8736C14.3821 14.1442 14.1442 14.3821 13.8736 14.5787C13.424 14.9054 12.8348 15.0666 11.8146 15.1369C11.8181 14.8332 11.8274 14.6551 11.8517 14.5014C12.0678 13.1375 13.1375 12.0678 14.5014 11.8517Z"/>
</svg>
